# xmcd CD database file
#
# Track frame offsets:
#	150
#	8077
#	27455
#	44505
#	48957
#	68455
#	92092
#	111657
#	132972
#	151362
#	169645
#	184750
#	198462
#	218742
#	245465
#	267990
#
# Disc length: 4004 seconds
#
# Revision: 3
# Processed by: cddbd v1.5PL3 Copyright (c) Steve Scherf et al.
# Submitted via: CDex 1.50beta8a
#
DISCID=de0fa210
DTITLE=井上喜久子 - そらいろのえほん_おつきさまCD
DYEAR=2003
DGENRE=Vocal
TTITLE0=elegant fish〜優美なおさかなB〜
TTITLE1=いつの日か
TTITLE2=すき
TTITLE3=あなたが傘をひらいたとき
TTITLE4=Shall we step in the rain?
TTITLE5=うしろ向きのスキップ
TTITLE6=ふうりん
TTITLE7=とりあつかい説明書
TTITLE8=ママが悲しむから
TTITLE9=トゥリンリン
TTITLE10=きみのうた
TTITLE11=しあわせのワルツ
TTITLE12=あなたのために出来ること
TTITLE13=サクラ
TTITLE14=そらいろのえほん〜月のよるに〜
TTITLE15=ありがとう
EXTD=YEAR: 2003
EXTT0=
EXTT1=
EXTT2=
EXTT3=
EXTT4=
EXTT5=
EXTT6=
EXTT7=
EXTT8=
EXTT9=
EXTT10=
EXTT11=
EXTT12=
EXTT13=
EXTT14=
EXTT15=
PLAYORDER=
